<?xml version="1.0" standalone="yes"?>
<svg xmlns="http://www.w3.org/2000/svg" width="500" height="500">
<path style="fill:#fffffe; stroke:none;" d="M0 0L0 500L500 500L500 0L0 0z"/>
<path style="fill:#ffbe5b; stroke:none;" d="M156 195L127 185.914L113 196.13L84 220.59L71.6034 233.004L71 252L71 292C79.4903 285.751 85.0139 270.473 94.615 266.467C102.371 263.231 119.657 270.923 128 272L128 195C134.711 197.187 151.036 200.291 154.972 206.394C157.653 210.55 156 219.222 156 224L156 268L164 268L164 161C164 149.657 159.839 128.135 165.028 118.015C169.16 109.957 181.975 103.521 189 98C209.139 82.1733 229.203 65.9503 250 51L250 167L250 201L250.603 215.83L270 233.754L308 266.08L328 281L328 268L344 268L344 223L345.603 205.51L371 195L371 272L406 265L427 292L428 292L428 251L427.397 232.039L416 220.87L387 196.41L373 185.925L344 195L344 136L342.972 112.174L327 98.7901L288 68.5756L262 48.3495L250 40.733L238 48.1188L211 69L173 98.5756L157.028 112.09L156 136L156 195z"/>
<path style="fill:#a2bde1; stroke:none;" d="M237 77L238 78L237 77z"/>
<path style="fill:#6491cd; stroke:none;" d="M238 77L238 174L237 223L238 223C241.11 212.478 239 198.955 239 188L239 117C239 105.58 242.408 87.5038 238 77M236 78L235 80L236 78z"/>
<path style="fill:#034cae; stroke:none;" d="M237 78C223.124 89.0134 208.975 99.6874 195 110.576C189.666 114.732 180.465 119.407 177.028 125.3C172.2 133.576 176 153.464 176 163L176 260C191.277 252.859 205.66 242.31 220 233.424C225.024 230.312 233.951 227.104 236.972 221.815C241.452 213.97 238 195.966 238 187L238 111C238 101.415 240.707 86.8353 237 78z"/>
<path style="fill:#a2bde1; stroke:none;" d="M233 80L234 81L233 80M232 81L233 82L232 81z"/>
<path style="fill:#6491cd; stroke:none;" d="M231 82L232 83L231 82z"/>
<path style="fill:#a2bde1; stroke:none;" d="M228 84L229 85L228 84z"/>
<path style="fill:#6491cd; stroke:none;" d="M227 85L228 86L227 85M226 86L227 87L226 86z"/>
<path style="fill:#a2bde1; stroke:none;" d="M224 87L225 88L224 87M223 88L224 89L223 88z"/>
<path style="fill:#6491cd; stroke:none;" d="M222 89L223 90L222 89z"/>
<path style="fill:#a2bde1; stroke:none;" d="M219 91L220 92L219 91z"/>
<path style="fill:#6491cd; stroke:none;" d="M218 92L219 93L218 92M217 93L218 94L217 93z"/>
<path style="fill:#a2bde1; stroke:none;" d="M215 94L216 95L215 94z"/>
<path style="fill:#6491cd; stroke:none;" d="M214 95L215 96L214 95M213 96L214 97L213 96z"/>
<path style="fill:#a2bde1; stroke:none;" d="M211 97L212 98L211 97M210 98L211 99L210 98z"/>
<path style="fill:#6491cd; stroke:none;" d="M209 99L210 100L209 99z"/>
<path style="fill:#a2bde1; stroke:none;" d="M206 101L207 102L206 101z"/>
<path style="fill:#6491cd; stroke:none;" d="M205 102L206 103L205 102M204 103L205 104L204 103z"/>
<path style="fill:#a2bde1; stroke:none;" d="M202 104L203 105L202 104M201 105L202 106L201 105z"/>
<path style="fill:#6491cd; stroke:none;" d="M200 106L201 107L200 106z"/>
<path style="fill:#a2bde1; stroke:none;" d="M197 108L198 109L197 108z"/>
<path style="fill:#6491cd; stroke:none;" d="M196 109L197 110L196 109M195 110L196 111L195 110z"/>
<path style="fill:#a2bde1; stroke:none;" d="M193 111L194 112L193 111M192 112L193 113L192 112z"/>
<path style="fill:#6491cd; stroke:none;" d="M191 113L192 114L191 113z"/>
<path style="fill:#a2bde1; stroke:none;" d="M188 115L189 116L188 115z"/>
<path style="fill:#6491cd; stroke:none;" d="M187 116L188 117L187 116M186 117L187 118L186 117z"/>
<path style="fill:#a2bde1; stroke:none;" d="M184 118L185 119L184 118z"/>
<path style="fill:#6491cd; stroke:none;" d="M183 119L184 120L183 119M182 120L183 121L182 120z"/>
<path style="fill:#a2bde1; stroke:none;" d="M180 121L181 122L180 121M179 122L180 123L179 122z"/>
<path style="fill:#6491cd; stroke:none;" d="M178 123L179 124L178 123z"/>
<path style="fill:#a2bde1; stroke:none;" d="M175 125L176 126L175 125z"/>
<path style="fill:#6491cd; stroke:none;" d="M175 126L175 260L176 260L176 166C176 154.58 179.408 136.504 175 126z"/>
<path style="fill:#a2bde1; stroke:none;" d="M236 223L237 224L236 223z"/>
<path style="fill:#6491cd; stroke:none;" d="M234 224L235 225L234 224z"/>
<path style="fill:#a2bde1; stroke:none;" d="M233 225L234 226L233 225M231 226L232 227L231 226z"/>
<path style="fill:#6491cd; stroke:none;" d="M229 227L230 228L229 227z"/>
<path style="fill:#a2bde1; stroke:none;" d="M228 228L229 229L228 228z"/>
<path style="fill:#6491cd; stroke:none;" d="M226 229L227 230L226 229M224 230L225 231L224 230z"/>
<path style="fill:#ffbe5b; stroke:none;" d="M249 230L172.586 321L144 356L165.961 354.972L188.754 329L228.92 281L251 256L269.92 280L307.586 325L333.428 354.972L356 356C337.412 327.899 311.697 302.87 290.08 277C277.606 262.071 264.857 241.263 249 230z"/>
<path style="fill:#a2bde1; stroke:none;" d="M223 231L224 232L223 231z"/>
<path style="fill:#6491cd; stroke:none;" d="M221 232L222 233L221 232M219 233L220 234L219 233z"/>
<path style="fill:#a2bde1; stroke:none;" d="M218 234L219 235L218 234z"/>
<path style="fill:#6491cd; stroke:none;" d="M216 235L217 236L216 235z"/>
<path style="fill:#a2bde1; stroke:none;" d="M215 236L216 237L215 236M213 237L214 238L213 237z"/>
<path style="fill:#6491cd; stroke:none;" d="M211 238L212 239L211 238z"/>
<path style="fill:#a2bde1; stroke:none;" d="M210 239L211 240L210 239z"/>
<path style="fill:#ffbe5b; stroke:none;" d="M232 239C215.806 255.183 198.388 270.811 181 285.709C170.944 294.325 163.001 288.777 163 277L152 277L152 301C146.413 295.394 144.006 291.955 144 284C133.728 283.161 123.053 280.192 113 277.881C108.81 276.918 102.273 274.371 98.0394 275.693C90.7209 277.979 83.3708 291.251 78.5864 297C62.492 316.339 44.1905 335.247 30 356C38.2469 354.67 44.5249 343.081 49.5864 337C65.3025 318.117 85.7238 299.262 98 278L99 278L147 340C155.87 335.829 162.374 324.405 168.59 317C183.419 299.333 198.299 281.708 213.08 264C218.217 257.846 231.496 247.125 232 239M266 239L350 340C356.779 336.772 361.223 328.799 365.789 323C376.719 309.119 392.811 294.135 400 278L402 278C412.786 298.903 434.172 317.91 449.247 336C454.555 342.369 460.776 353.643 469 356C457.882 334.454 435.795 314.658 420.247 296C415.683 290.523 408.758 277.983 401.83 275.693C393.189 272.836 375.845 280.231 367 282C363.911 282.618 359.045 282.735 356.603 284.938C353.077 288.12 351.801 296.632 348 301L348 277C337.559 277 336 278.559 336 289L325 289.968L307 275.025L266 239z"/>
<path style="fill:#6491cd; stroke:none;" d="M208 240L209 241L208 240M206 241L207 242L206 241z"/>
<path style="fill:#a2bde1; stroke:none;" d="M205 242L206 243L205 242z"/>
<path style="fill:#6491cd; stroke:none;" d="M203 243L204 244L203 243M201 244L202 245L201 244z"/>
<path style="fill:#a2bde1; stroke:none;" d="M202 244L203 245L202 244M200 245L201 246L200 245z"/>
<path style="fill:#6491cd; stroke:none;" d="M198 246L199 247L198 246z"/>
<path style="fill:#a2bde1; stroke:none;" d="M197 247L198 248L197 247M195 248L196 249L195 248z"/>
<path style="fill:#6491cd; stroke:none;" d="M193 249L194 250L193 249z"/>
<path style="fill:#a2bde1; stroke:none;" d="M192 250L193 251L192 250z"/>
<path style="fill:#6491cd; stroke:none;" d="M190 251L191 252L190 251M188 252L189 253L188 252z"/>
<path style="fill:#a2bde1; stroke:none;" d="M187 253L188 254L187 253z"/>
<path style="fill:#6491cd; stroke:none;" d="M185 254L186 255L185 254z"/>
<path style="fill:#a2bde1; stroke:none;" d="M184 255L185 256L184 255M182 256L183 257L182 256z"/>
<path style="fill:#6491cd; stroke:none;" d="M180 257L181 258L180 257z"/>
<path style="fill:#a2bde1; stroke:none;" d="M179 258L180 259L179 258M177 259L178 260L177 259M175 260L176 261L175 260M249 263L248 265L249 263z"/>
<path style="fill:#034cae; stroke:none;" d="M190 334L223.09 300L249 272L250 272L287 311L309 333L251 264L229.576 287L190 334z"/>
<path style="fill:#6491cd; stroke:none;" d="M251 265L252 266L251 265M252 266L253 267L252 266M246 267L247 268L246 267M253 267L254 268L253 267M245 268L246 269L245 268z"/>
<path style="fill:#a2bde1; stroke:none;" d="M254 268L255 269L254 268M244 269L245 270L244 269M255 269L256 270L255 269M243 270L244 271L243 270z"/>
<path style="fill:#6491cd; stroke:none;" d="M249 272L250 273L249 272M257 272L258 273L257 272M248 273L249 274L248 273M258 273L259 274L258 273M240 274L241 275L240 274M247 274L248 275L247 274z"/>
<path style="fill:#a2bde1; stroke:none;" d="M259 274L260 275L259 274z"/>
<path style="fill:#6491cd; stroke:none;" d="M239 275L240 276L239 275M246 275L247 276L246 275z"/>
<path style="fill:#a2bde1; stroke:none;" d="M260 275L261 276L260 275M238 276L239 277L238 276z"/>
<path style="fill:#6491cd; stroke:none;" d="M245 276L246 277L245 276z"/>
<path style="fill:#a2bde1; stroke:none;" d="M261 276L262 277L261 276M237 277L238 278L237 277z"/>
<path style="fill:#6491cd; stroke:none;" d="M244 277L245 278L244 277z"/>
<path style="fill:#a2bde1; stroke:none;" d="M256 279L257 280L256 279z"/>
<path style="fill:#6491cd; stroke:none;" d="M263 279L264 280L263 279z"/>
<path style="fill:#a2bde1; stroke:none;" d="M257 280L258 281L257 280z"/>
<path style="fill:#6491cd; stroke:none;" d="M264 280L265 281L264 280M234 281L235 282L234 281z"/>
<path style="fill:#a2bde1; stroke:none;" d="M258 281L259 282L258 281M265 281L266 282L265 281z"/>
<path style="fill:#6491cd; stroke:none;" d="M233 282L234 283L233 282z"/>
<path style="fill:#a2bde1; stroke:none;" d="M259 282L260 283L259 282M266 282L267 283L266 282M232 283L233 284L232 283M260 283L261 284L260 283M231 284L232 285L231 284M261 284L262 285L261 284M237 285L238 286L237 285M262 285L263 286L262 285z"/>
<path style="fill:#6491cd; stroke:none;" d="M98 286L97 288L98 286z"/>
<path style="fill:#a2bde1; stroke:none;" d="M99 286L101 288L99 286M236 286L237 287L236 286M263 286L264 287L263 286z"/>
<path style="fill:#6491cd; stroke:none;" d="M269 286L270 287L269 286M400 286L399 288L400 286z"/>
<path style="fill:#a2bde1; stroke:none;" d="M401 286L403 288L401 286z"/>
<path style="fill:#034cae; stroke:none;" d="M40 356L57 356C57.0079 345.713 62.8286 340.527 69.2708 333C79.6862 320.831 92.9749 308.886 101 295L102 295C109.63 305.832 121.18 319.357 132 327C125.033 316.468 116.151 306.723 108.081 297C106.031 294.53 102.584 288.207 98.9144 288.207C93.4927 288.207 86.5781 300.226 83.4105 304C69.1096 321.037 52.2698 337.451 40 356z"/>
<path style="fill:#6491cd; stroke:none;" d="M229 287L230 288L229 287z"/>
<path style="fill:#a2bde1; stroke:none;" d="M235 287L236 288L235 287M264 287L265 288L264 287z"/>
<path style="fill:#6491cd; stroke:none;" d="M270 287L271 288L270 287z"/>
<path style="fill:#034cae; stroke:none;" d="M367 328C377.106 320.562 391.223 306.136 397 295L399 295C405.595 309.227 421.076 322.089 431.271 334C437.439 341.207 442.972 346.13 443 356L459 356C450.435 337.301 429.661 319.786 416.41 304C413.373 300.381 406.086 288.207 400.975 288.207C396.851 288.207 393.049 295.189 390.8 298C382.876 307.905 373.999 317.418 367 328z"/>
<path style="fill:#a2bde1; stroke:none;" d="M96 288L97 289L96 288z"/>
<path style="fill:#6491cd; stroke:none;" d="M228 288L229 289L228 288z"/>
<path style="fill:#a2bde1; stroke:none;" d="M234 288L235 289L234 288z"/>
<path style="fill:#6491cd; stroke:none;" d="M265 288L266 289L265 288z"/>
<path style="fill:#a2bde1; stroke:none;" d="M271 288L272 289L271 288M398 288L399 289L398 288M95 289L96 290L95 289z"/>
<path style="fill:#6491cd; stroke:none;" d="M227 289L228 290L227 289z"/>
<path style="fill:#a2bde1; stroke:none;" d="M233 289L234 290L233 289z"/>
<path style="fill:#6491cd; stroke:none;" d="M266 289L267 290L266 289z"/>
<path style="fill:#a2bde1; stroke:none;" d="M272 289L273 290L272 289M397 289L398 290L397 289z"/>
<path style="fill:#6491cd; stroke:none;" d="M102 290L103 291L102 290z"/>
<path style="fill:#a2bde1; stroke:none;" d="M226 290L227 291L226 290M232 290L233 291L232 290z"/>
<path style="fill:#6491cd; stroke:none;" d="M267 290L268 291L267 290M103 291L104 292L103 291z"/>
<path style="fill:#a2bde1; stroke:none;" d="M225 291L226 292L225 291M231 291L232 292L231 291z"/>
<path style="fill:#6491cd; stroke:none;" d="M268 291L269 292L268 291M405 291L406 292L405 291z"/>
<path style="fill:#a2bde1; stroke:none;" d="M104 292L105 293L104 292M230 292L231 293L230 292z"/>
<path style="fill:#6491cd; stroke:none;" d="M269 292L270 293L269 292M274 292L275 293L274 292M395 292L396 293L395 292M406 292L407 293L406 292M92 293L93 294L92 293z"/>
<path style="fill:#a2bde1; stroke:none;" d="M229 293L230 294L229 293z"/>
<path style="fill:#6491cd; stroke:none;" d="M270 293L271 294L270 293M275 293L276 294L275 293z"/>
<path style="fill:#a2bde1; stroke:none;" d="M394 293L395 294L394 293M407 293L408 294L407 293z"/>
<path style="fill:#6491cd; stroke:none;" d="M91 294L92 295L91 294M223 294L224 295L223 294M228 294L229 295L228 294M271 294L272 295L271 294M276 294L277 295L276 294z"/>
<path style="fill:#a2bde1; stroke:none;" d="M393 294L394 295L393 294M408 294L409 295L408 294M90 295L91 296L90 295z"/>
<path style="fill:#6491cd; stroke:none;" d="M101 295L102 296L101 295M106 295L107 296L106 295M222 295L223 296L222 295M227 295L228 296L227 295M272 295L273 296L272 295z"/>
<path style="fill:#a2bde1; stroke:none;" d="M277 295L278 296L277 295z"/>
<path style="fill:#6491cd; stroke:none;" d="M397.667 295.333L398.333 295.667L397.667 295.333z"/>
<path style="fill:#a2bde1; stroke:none;" d="M89 296L90 297L89 296z"/>
<path style="fill:#6491cd; stroke:none;" d="M100 296L101 297L100 296M107 296L108 297L107 296z"/>
<path style="fill:#a2bde1; stroke:none;" d="M221 296L222 297L221 296z"/>
<path style="fill:#6491cd; stroke:none;" d="M226 296L227 297L226 296z"/>
<path style="fill:#a2bde1; stroke:none;" d="M278 296L279 297L278 296z"/>
<path style="fill:#6491cd; stroke:none;" d="M396 296L397 297L396 296M99 297L100 298L99 297z"/>
<path style="fill:#a2bde1; stroke:none;" d="M103 297L104 298L103 297M108 297L109 298L108 297M220 297L221 298L220 297z"/>
<path style="fill:#6491cd; stroke:none;" d="M225 297L226 298L225 297M391 297L392 298L391 297M410 297L411 298L410 297z"/>
<path style="fill:#a2bde1; stroke:none;" d="M104 298L105 299L104 298M109 298L110 299L109 298M219 298L220 299L219 298z"/>
<path style="fill:#6491cd; stroke:none;" d="M224 298L225 299L224 298z"/>
<path style="fill:#a2bde1; stroke:none;" d="M390 298L391 299L390 298M400 298L401 299L400 298z"/>
<path style="fill:#6491cd; stroke:none;" d="M411 298L412 299L411 298M87 299L88 300L87 299z"/>
<path style="fill:#a2bde1; stroke:none;" d="M105 299L106 300L105 299z"/>
<path style="fill:#6491cd; stroke:none;" d="M223 299L224 300L223 299M280 299L281 300L280 299z"/>
<path style="fill:#a2bde1; stroke:none;" d="M389 299L390 300L389 299M401 299L402 300L401 299M412 299L413 300L412 299z"/>
<path style="fill:#6491cd; stroke:none;" d="M86 300L87 301L86 300z"/>
<path style="fill:#a2bde1; stroke:none;" d="M97 300L98 301L97 300M106 300L107 301L106 300z"/>
<path style="fill:#6491cd; stroke:none;" d="M222 300L223 301L222 300M281 300L282 301L281 300M402 300L403 301L402 300z"/>
<path style="fill:#a2bde1; stroke:none;" d="M413 300L414 301L413 300M85 301L86 302L85 301M96 301L97 302L96 301M107 301L108 302L107 301z"/>
<path style="fill:#6491cd; stroke:none;" d="M111 301L112 302L111 301M217 301L218 302L217 301M221 301L222 302L221 301z"/>
<path style="fill:#a2bde1; stroke:none;" d="M282 301L283 302L282 301M392 301L393 302L392 301z"/>
<path style="fill:#6491cd; stroke:none;" d="M403 301L404 302L403 301z"/>
<path style="fill:#a2bde1; stroke:none;" d="M84 302L85 303L84 302z"/>
<path style="fill:#6491cd; stroke:none;" d="M95 302L96 303L95 302M108 302L109 303L108 302z"/>
<path style="fill:#a2bde1; stroke:none;" d="M112 302L113 303L112 302z"/>
<path style="fill:#6491cd; stroke:none;" d="M216 302L217 303L216 302M220 302L221 303L220 302z"/>
<path style="fill:#a2bde1; stroke:none;" d="M283 302L284 303L283 302z"/>
<path style="fill:#6491cd; stroke:none;" d="M387 302L388 303L387 302z"/>
<path style="fill:#a2bde1; stroke:none;" d="M391 302L392 303L391 302z"/>
<path style="fill:#6491cd; stroke:none;" d="M404 302L405 303L404 302M94 303L95 304L94 303M109 303L110 304L109 303z"/>
<path style="fill:#a2bde1; stroke:none;" d="M113 303L114 304L113 303M215 303L216 304L215 303M284 303L285 304L284 303z"/>
<path style="fill:#6491cd; stroke:none;" d="M386 303L387 304L386 303z"/>
<path style="fill:#a2bde1; stroke:none;" d="M390 303L391 304L390 303z"/>
<path style="fill:#6491cd; stroke:none;" d="M93 304L94 305L93 304M110 304L111 305L110 304z"/>
<path style="fill:#a2bde1; stroke:none;" d="M214 304L215 305L214 304z"/>
<path style="fill:#6491cd; stroke:none;" d="M235 304L235 305L248 305L248 318C253.119 305.802 244.836 304 235 304z"/>
<path style="fill:#a2bde1; stroke:none;" d="M248 304L249 305L248 304M251 304L252 305L251 304z"/>
<path style="fill:#6491cd; stroke:none;" d="M251 318L252 318L252 305L264 305L264 318C267.169 310.447 259.588 296.058 252.028 305.603C249.821 308.389 251 314.643 251 318z"/>
<path style="fill:#a2bde1; stroke:none;" d="M264 304L265 305L264 304M280 304L281 305L280 304M385 304L386 305L385 304M389 304L390 305L389 304z"/>
<path style="fill:#6491cd; stroke:none;" d="M416 304L417 305L416 304M82 305L83 306L82 305M111 305L112 306L111 305z"/>
<path style="fill:#a2bde1; stroke:none;" d="M213 305L214 306L213 305M234 305L234 318L235 318L234 305z"/>
<path style="fill:#034cae; stroke:none;" d="M235 305L235 318L248 318L248 305L235 305M252 305L252 318L264 318L264 305L252 305z"/>
<path style="fill:#a2bde1; stroke:none;" d="M281 305L282 306L281 305M384 305L385 306L384 305z"/>
<path style="fill:#6491cd; stroke:none;" d="M388 305L389 306L388 305z"/>
<path style="fill:#a2bde1; stroke:none;" d="M406 305L407 306L406 305z"/>
<path style="fill:#6491cd; stroke:none;" d="M417 305L418 306L417 305M81 306L82 307L81 306M115 306L116 307L115 306z"/>
<path style="fill:#a2bde1; stroke:none;" d="M282 306L283 307L282 306z"/>
<path style="fill:#6491cd; stroke:none;" d="M286 306L287 307L286 306M387 306L388 307L387 306z"/>
<path style="fill:#a2bde1; stroke:none;" d="M407 306L408 307L407 306M418 306L419 307L418 306z"/>
<path style="fill:#6491cd; stroke:none;" d="M80 307L81 308L80 307z"/>
<path style="fill:#a2bde1; stroke:none;" d="M91 307L92 308L91 307M116 307L117 308L116 307M283 307L284 308L283 307z"/>
<path style="fill:#6491cd; stroke:none;" d="M287 307L288 308L287 307M383 307L384 308L383 307M386 307L387 308L386 307z"/>
<path style="fill:#a2bde1; stroke:none;" d="M408 307L409 308L408 307M419 307L420 308L419 307M79 308L80 309L79 308M90 308L91 309L90 308M117 308L118 309L117 308z"/>
<path style="fill:#6491cd; stroke:none;" d="M211 308L212 309L211 308z"/>
<path style="fill:#a2bde1; stroke:none;" d="M284 308L285 309L284 308M288 308L289 309L288 308z"/>
<path style="fill:#6491cd; stroke:none;" d="M382 308L383 309L382 308M385 308L386 309L385 308M409 308L410 309L409 308z"/>
<path style="fill:#a2bde1; stroke:none;" d="M78 309L79 310L78 309M89 309L90 310L89 309z"/>
<path style="fill:#6491cd; stroke:none;" d="M210 309L211 310L210 309z"/>
<path style="fill:#a2bde1; stroke:none;" d="M285 309L286 310L285 309M289 309L290 310L289 309M381 309L382 310L381 309z"/>
<path style="fill:#6491cd; stroke:none;" d="M384 309L385 310L384 309M410 309L411 310L410 309M88 310L89 311L88 310z"/>
<path style="fill:#a2bde1; stroke:none;" d="M115 310L116 311L115 310M209 310L210 311L209 310M213 310L214 311L213 310M286 310L287 311L286 310M380 310L381 311L380 310z"/>
<path style="fill:#6491cd; stroke:none;" d="M421 310L422 311L421 310M87 311L88 312L87 311z"/>
<path style="fill:#a2bde1; stroke:none;" d="M116 311L117 312L116 311z"/>
<path style="fill:#6491cd; stroke:none;" d="M119 311L120 312L119 311z"/>
<path style="fill:#a2bde1; stroke:none;" d="M208 311L209 312L208 311M212 311L213 312L212 311M287 311L288 312L287 311z"/>
<path style="fill:#6491cd; stroke:none;" d="M422 311L423 312L422 311M76 312L77 313L76 312z"/>
<path style="fill:#a2bde1; stroke:none;" d="M117 312L118 313L117 312z"/>
<path style="fill:#6491cd; stroke:none;" d="M120 312L121 313L120 312z"/>
<path style="fill:#a2bde1; stroke:none;" d="M211 312L212 313L211 312z"/>
<path style="fill:#6491cd; stroke:none;" d="M288 312L289 313L288 312z"/>
<path style="fill:#a2bde1; stroke:none;" d="M412 312L413 313L412 312M423 312L424 313L423 312z"/>
<path style="fill:#6491cd; stroke:none;" d="M75 313L76 314L75 313z"/>
<path style="fill:#a2bde1; stroke:none;" d="M118 313L119 314L118 313M121 313L122 314L121 313M210 313L211 314L210 313z"/>
<path style="fill:#6491cd; stroke:none;" d="M289 313L290 314L289 313M292 313L293 314L292 313M378 313L379 314L378 313z"/>
<path style="fill:#a2bde1; stroke:none;" d="M413 313L414 314L413 313M424 313L425 314L424 313M74 314L75 315L74 314M85 314L86 315L85 314z"/>
<path style="fill:#6491cd; stroke:none;" d="M119 314L120 315L119 314z"/>
<path style="fill:#a2bde1; stroke:none;" d="M209 314L210 315L209 314z"/>
<path style="fill:#6491cd; stroke:none;" d="M290 314L291 315L290 314M293 314L294 315L293 314z"/>
<path style="fill:#a2bde1; stroke:none;" d="M377 314L378 315L377 314M380 314L381 315L380 314M414 314L415 315L414 314M73 315L74 316L73 315M84 315L85 316L84 315z"/>
<path style="fill:#6491cd; stroke:none;" d="M120 315L121 316L120 315M205 315L206 316L205 315z"/>
<path style="fill:#a2bde1; stroke:none;" d="M208 315L209 316L208 315z"/>
<path style="fill:#6491cd; stroke:none;" d="M291 315L292 316L291 315z"/>
<path style="fill:#a2bde1; stroke:none;" d="M294 315L295 316L294 315M376 315L377 316L376 315M379 315L380 316L379 315z"/>
<path style="fill:#6491cd; stroke:none;" d="M415 315L416 316L415 315z"/>
<path style="fill:#a2bde1; stroke:none;" d="M83 316L84 317L83 316z"/>
<path style="fill:#6491cd; stroke:none;" d="M121 316L122 317L121 316M123 316L124 317L123 316M204 316L205 317L204 316z"/>
<path style="fill:#a2bde1; stroke:none;" d="M207 316L208 317L207 316z"/>
<path style="fill:#6491cd; stroke:none;" d="M292 316L293 317L292 316z"/>
<path style="fill:#a2bde1; stroke:none;" d="M295 316L296 317L295 316M378 316L379 317L378 316z"/>
<path style="fill:#6491cd; stroke:none;" d="M416 316L417 317L416 316M82 317L83 318L82 317M122 317L123 318L122 317M124 317L125 318L124 317z"/>
<path style="fill:#a2bde1; stroke:none;" d="M203 317L204 318L203 317M206 317L207 318L206 317z"/>
<path style="fill:#6491cd; stroke:none;" d="M293 317L294 318L293 317z"/>
<path style="fill:#a2bde1; stroke:none;" d="M377 317L378 318L377 317z"/>
<path style="fill:#6491cd; stroke:none;" d="M427 317L428 318L427 317M71 318L72 319L71 318M81 318L82 319L81 318M123 318L124 319L123 318z"/>
<path style="fill:#a2bde1; stroke:none;" d="M125 318L126 319L125 318M202 318L203 319L202 318M205 318L206 319L205 318z"/>
<path style="fill:#6491cd; stroke:none;" d="M294 318L295 319L294 318M374 318L375 319L374 318M376 318L377 319L376 318M428 318L429 319L428 318M70 319L71 320L70 319z"/>
<path style="fill:#a2bde1; stroke:none;" d="M126 319L127 320L126 319z"/>
<path style="fill:#6491cd; stroke:none;" d="M204 319L205 320L204 319M295 319L296 320L295 319M297 319L298 320L297 319z"/>
<path style="fill:#a2bde1; stroke:none;" d="M373 319L374 320L373 319z"/>
<path style="fill:#6491cd; stroke:none;" d="M375 319L376 320L375 319z"/>
<path style="fill:#a2bde1; stroke:none;" d="M429 319L430 320L429 319z"/>
<path style="fill:#6491cd; stroke:none;" d="M69 320L70 321L69 320M203 320L204 321L203 320M296 320L297 321L296 320M298 320L299 321L298 320z"/>
<path style="fill:#a2bde1; stroke:none;" d="M372 320L373 321L372 320z"/>
<path style="fill:#6491cd; stroke:none;" d="M374 320L375 321L374 320z"/>
<path style="fill:#a2bde1; stroke:none;" d="M419 320L420 321L419 320M430 320L431 321L430 320M68 321L69 322L68 321z"/>
<path style="fill:#6491cd; stroke:none;" d="M200 321L201 322L200 321M202 321L203 322L202 321z"/>
<path style="fill:#a2bde1; stroke:none;" d="M234 321L234 334L235 334L234 321z"/>
<path style="fill:#034cae; stroke:none;" d="M235 321L235 334L248 334L248 321L235 321z"/>
<path style="fill:#6491cd; stroke:none;" d="M248 321L248 334L235 334L235 335C244.836 335 253.119 333.198 248 321M251 321C251 324.417 250.062 329.549 251.603 332.682C253.204 335.935 261.815 336.12 263.972 333.397C266.179 330.611 265 324.357 265 321L264 321L264 334L252 334L251 321z"/>
<path style="fill:#034cae; stroke:none;" d="M252 321L252 334L264 334L264 321L252 321z"/>
<path style="fill:#6491cd; stroke:none;" d="M299 321L300 322L299 321M373 321L374 322L373 321z"/>
<path style="fill:#a2bde1; stroke:none;" d="M420 321L421 322L420 321M67 322L68 323L67 322M78 322L79 323L78 322z"/>
<path style="fill:#6491cd; stroke:none;" d="M128 322L129 323L128 322M199 322L200 323L199 322M201 322L202 323L201 322z"/>
<path style="fill:#a2bde1; stroke:none;" d="M300 322L301 323L300 322z"/>
<path style="fill:#6491cd; stroke:none;" d="M372 322L373 323L372 322M421 322L422 323L421 322z"/>
<path style="fill:#a2bde1; stroke:none;" d="M77 323L78 324L77 323M127 323L128 324L127 323M129 323L130 324L129 323z"/>
<path style="fill:#6491cd; stroke:none;" d="M198 323L199 324L198 323M200 323L201 324L200 323z"/>
<path style="fill:#a2bde1; stroke:none;" d="M301 323L302 324L301 323z"/>
<path style="fill:#6491cd; stroke:none;" d="M370 323L371 324L370 323M422 323L423 324L422 323M432 323L433 324L432 323M76 324L77 325L76 324z"/>
<path style="fill:#a2bde1; stroke:none;" d="M128 324L129 325L128 324M130 324L131 325L130 324M197 324L198 325L197 324z"/>
<path style="fill:#6491cd; stroke:none;" d="M199 324L200 325L199 324M369 324L370 325L369 324M423 324L424 325L423 324M433 324L434 325L433 324M65 325L66 326L65 325M75 325L76 326L75 325z"/>
<path style="fill:#a2bde1; stroke:none;" d="M91 325L91 326L100 326L100 335C103.421 326.845 97.9639 325.005 91 325M102 325L102 326L111 326L111 335C114.421 326.845 108.964 325.005 102 325M129 325L130 326L129 325M196 325L197 326L196 325z"/>
<path style="fill:#6491cd; stroke:none;" d="M198 325L199 326L198 325z"/>
<path style="fill:#a2bde1; stroke:none;" d="M368 325L369 326L368 325M389 325L389 326L397 326L389 325M400 325L400 326L408 326L400 325M434 325L435 326L434 325z"/>
<path style="fill:#6491cd; stroke:none;" d="M64 326L65 327L64 326M74 326L75 327L74 326M91 326L91 335L100 335L100 334L92 334L91 326z"/>
<path style="fill:#034cae; stroke:none;" d="M92 326L92 334L100 334L100 326L92 326z"/>
<path style="fill:#6491cd; stroke:none;" d="M102 326L102 335L111 335L111 334L103 334L102 326z"/>
<path style="fill:#034cae; stroke:none;" d="M103 326L103 334L111 334L111 326L103 326z"/>
<path style="fill:#a2bde1; stroke:none;" d="M130 326L131 327L130 326z"/>
<path style="fill:#6491cd; stroke:none;" d="M197 326L198 327L197 326M303 326L304 327L303 326z"/>
<path style="fill:#a2bde1; stroke:none;" d="M367 326L368 327L367 326z"/>
<path style="fill:#6491cd; stroke:none;" d="M388 326C388.04 337.243 397.96 337.243 398 326L397 326L397 334L389 334L388 326z"/>
<path style="fill:#034cae; stroke:none;" d="M389 326L389 334L397 334L397 326L389 326z"/>
<path style="fill:#6491cd; stroke:none;" d="M399 326C399.04 337.243 408.96 337.243 409 326L408 326L408 334L400 334L399 326z"/>
<path style="fill:#034cae; stroke:none;" d="M400 326L400 334L408 334L408 326L400 326z"/>
<path style="fill:#a2bde1; stroke:none;" d="M435 326L436 327L435 326M63 327L64 328L63 327z"/>
<path style="fill:#6491cd; stroke:none;" d="M131 327L135 331L131 327M196 327L197 328L196 327M304 327L305 328L304 327z"/>
<path style="fill:#a2bde1; stroke:none;" d="M368 327L369 328L368 327M425 327L426 328L425 327M62 328L63 329L62 328M133 328L134 329L133 328z"/>
<path style="fill:#6491cd; stroke:none;" d="M194 328L195 329L194 328z"/>
<path style="fill:#a2bde1; stroke:none;" d="M303 328L304 329L303 328z"/>
<path style="fill:#6491cd; stroke:none;" d="M305 328L306 329L305 328M366 328L365 330L366 328z"/>
<path style="fill:#a2bde1; stroke:none;" d="M367 328L368 329L367 328M426 328L427 329L426 328M72 329L73 330L72 329M134 329L135 330L134 329z"/>
<path style="fill:#6491cd; stroke:none;" d="M193 329L194 330L193 329z"/>
<path style="fill:#a2bde1; stroke:none;" d="M304 329L305 330L304 329M306 329L307 330L306 329M366 329L367 330L366 329z"/>
<path style="fill:#6491cd; stroke:none;" d="M427 329L428 330L427 329M437 329L438 330L437 329z"/>
<path style="fill:#a2bde1; stroke:none;" d="M71 330L72 331L71 330z"/>
<path style="fill:#6491cd; stroke:none;" d="M192 330L193 331L192 330z"/>
<path style="fill:#a2bde1; stroke:none;" d="M305 330L306 331L305 330M307 330L308 331L307 330M363 332L366 331L363 332z"/>
<path style="fill:#6491cd; stroke:none;" d="M428 330L429 331L428 330M438 330L439 331L438 330M60 331L61 332L60 331M70 331L71 332L70 331M135 331L136 332L135 331z"/>
<path style="fill:#a2bde1; stroke:none;" d="M191 331L192 332L191 331M306 331L307 332L306 331z"/>
<path style="fill:#6491cd; stroke:none;" d="M364 331L365 332L364 331M429 331L430 332L429 331M439 331L440 332L439 331M59 332L60 333L59 332M69 332L70 333L69 332M136 332L137 333L136 332z"/>
<path style="fill:#a2bde1; stroke:none;" d="M190 332L191 333L190 332M307 332L308 333L307 332z"/>
<path style="fill:#6491cd; stroke:none;" d="M363 332L364 333L363 332z"/>
<path style="fill:#a2bde1; stroke:none;" d="M440 332L441 333L440 332z"/>
<path style="fill:#6491cd; stroke:none;" d="M58 333L59 334L58 333M68 333L69 334L68 333z"/>
<path style="fill:#a2bde1; stroke:none;" d="M137 333L138 334L137 333M308 333L314 339L308 333z"/>
<path style="fill:#6491cd; stroke:none;" d="M309 333L310 334L309 333M362 333L363 334L362 333z"/>
<path style="fill:#a2bde1; stroke:none;" d="M441 333L442 334L441 333M57 334L58 335L57 334M138 334L139 335L138 334z"/>
<path style="fill:#6491cd; stroke:none;" d="M189 334L187 337L189 334z"/>
<path style="fill:#a2bde1; stroke:none;" d="M248 334L249 335L248 334M251 334L252 335L251 334M264 334L265 335L264 334z"/>
<path style="fill:#6491cd; stroke:none;" d="M310 334L311 335L310 334z"/>
<path style="fill:#a2bde1; stroke:none;" d="M361 334L362 335L361 334M388 334L389 335L388 334M397 334L398 335L397 334M399 334L400 335L399 334M408 334L409 335L408 334M431 334L432 335L431 334M56 335L57 336L56 335M189 335L190 336L189 335M360 335L361 336L360 335M432 335L433 336L432 335M66 336L67 337L66 336M91 336L92 337L91 336z"/>
<path style="fill:#6491cd; stroke:none;" d="M100 346L100 345L92 345L92 337L100 337C90.3192 332.948 87.5952 345.956 100 346z"/>
<path style="fill:#a2bde1; stroke:none;" d="M102 336L103 337L102 336z"/>
<path style="fill:#6491cd; stroke:none;" d="M111 346L111 345L103 345L103 337L111 337C101.319 332.948 98.5952 345.956 111 346z"/>
<path style="fill:#a2bde1; stroke:none;" d="M188 336L189 337L188 336M388 336L389 337L388 336z"/>
<path style="fill:#6491cd; stroke:none;" d="M389.603 337.028C384.558 341.012 391.198 349.078 396.397 344.972C401.442 340.988 394.802 332.922 389.603 337.028z"/>
<path style="fill:#a2bde1; stroke:none;" d="M397 336L398 337L397 336M399 336L400 337L399 336z"/>
<path style="fill:#6491cd; stroke:none;" d="M400.603 337.028C395.558 341.012 402.198 349.078 407.397 344.972C412.442 340.988 405.802 332.922 400.603 337.028z"/>
<path style="fill:#a2bde1; stroke:none;" d="M408 336L409 337L408 336M433 336L434 337L433 336z"/>
<path style="fill:#6491cd; stroke:none;" d="M443 336L444 337L443 336z"/>
<path style="fill:#a2bde1; stroke:none;" d="M65 337L66 338L65 337z"/>
<path style="fill:#034cae; stroke:none;" d="M92 337L92 345L100 345L100 337L92 337z"/>
<path style="fill:#a2bde1; stroke:none;" d="M100 337L100 345L101 345L100 337z"/>
<path style="fill:#034cae; stroke:none;" d="M103 337L103 345L111 345L111 337L103 337z"/>
<path style="fill:#a2bde1; stroke:none;" d="M111 337L111 345L112 345L111 337M184 341L188 337L184 341z"/>
<path style="fill:#034cae; stroke:none;" d="M389 337L389 345L397 345L397 337L389 337M400 337L400 345L408 345L408 337L400 337z"/>
<path style="fill:#6491cd; stroke:none;" d="M434 337L435 338L434 337M444 337L445 338L444 337M54 338L55 339L54 338z"/>
<path style="fill:#a2bde1; stroke:none;" d="M64 338L65 339L64 338z"/>
<path style="fill:#6491cd; stroke:none;" d="M435 338L436 339L435 338z"/>
<path style="fill:#a2bde1; stroke:none;" d="M445 338L446 339L445 338z"/>
<path style="fill:#6491cd; stroke:none;" d="M53 339L54 340L53 339M63 339L64 340L63 339z"/>
<path style="fill:#a2bde1; stroke:none;" d="M314 339L315 340L314 339M446 339L447 340L446 339M52 340L53 341L52 340z"/>
<path style="fill:#6491cd; stroke:none;" d="M62 340L63 341L62 340z"/>
<path style="fill:#a2bde1; stroke:none;" d="M315 340L316 341L315 340M51 341L52 342L51 341M183 341L184 342L183 341M316 341L317 342L316 341M437 341L438 342L437 341M438 342L439 343L438 342z"/>
<path style="fill:#6491cd; stroke:none;" d="M448 342L449 343L448 342z"/>
<path style="fill:#a2bde1; stroke:none;" d="M60 343L61 344L60 343M439 343L440 344L439 343z"/>
<path style="fill:#6491cd; stroke:none;" d="M449 343L450 344L449 343M49 344L50 345L49 344z"/>
<path style="fill:#a2bde1; stroke:none;" d="M59 344L60 345L59 344z"/>
<path style="fill:#6491cd; stroke:none;" d="M440 344L441 345L440 344M450 344L451 345L450 344M48 345L49 346L48 345z"/>
<path style="fill:#a2bde1; stroke:none;" d="M58 345L59 346L58 345M91 345L92 346L91 345M102 345L103 346L102 345M388 345L389 346L388 345M397 345L398 346L397 345M399 345L400 346L399 345M408 345L409 346L408 345z"/>
<path style="fill:#6491cd; stroke:none;" d="M441 345L442 346L441 345z"/>
<path style="fill:#a2bde1; stroke:none;" d="M451 345L452 346L451 345z"/>
<path style="fill:#6491cd; stroke:none;" d="M47 346L48 347L47 346M57 346L58 347L57 346z"/>
<path style="fill:#a2bde1; stroke:none;" d="M452 346L453 347L452 346M46 347L47 348L46 347M442 347L442 356L443 356L442 347M45 348L46 349L45 348z"/>
<path style="fill:#6491cd; stroke:none;" d="M454 349L455 350L454 349M455 350L456 351L455 350M43 351L44 352L43 351z"/>
<path style="fill:#a2bde1; stroke:none;" d="M456 351L457 352L456 351z"/>
<path style="fill:#6491cd; stroke:none;" d="M42 352L43 353L42 352z"/>
<path style="fill:#a2bde1; stroke:none;" d="M457 352L458 353L457 352M41 353L42 354L41 353M40 354L41 355L40 354z"/>
<path style="fill:#6491cd; stroke:none;" d="M459 355L460 356L459 355z"/>
<path style="fill:#a2bde1; stroke:none;" d="M430.667 379.333L431.333 379.667L430.667 379.333z"/>
<path style="fill:#6491cd; stroke:none;" d="M432 379L432 380L439 380L432 379z"/>
<path style="fill:#a2bde1; stroke:none;" d="M439.667 379.333L440.333 379.667L439.667 379.333z"/>
<path style="fill:#034cae; stroke:none;" d="M44 380L44 425L56 425L56 406C71.4498 406 71 410.749 71 425L82 425L82 380L71 380L71 397L56 397L56 380L44 380z"/>
<path style="fill:#a2bde1; stroke:none;" d="M56 380C56 393.464 55.6919 397 70 397L70 396L57 396L56 380z"/>
<path style="fill:#6491cd; stroke:none;" d="M70 380L70 397L71 397L70 380M82 380L82 425L83 425C83 412.258 86.91 391.701 82 380z"/>
<path style="fill:#a2bde1; stroke:none;" d="M87 380L88 381L87 380z"/>
<path style="fill:#034cae; stroke:none;" d="M88 380C94.8038 396.342 103 406.756 103 425L114 425C114 406.41 122.049 396.608 129 380C115.94 380 112.658 384.297 109 397C102.194 385.339 102.526 380 88 380z"/>
<path style="fill:#6491cd; stroke:none;" d="M134 380L134 425L135 425C135 412.258 138.91 391.701 134 380z"/>
<path style="fill:#034cae; stroke:none;" d="M135 380L135 425L146 425L146 410C158.441 409.966 176.774 397.397 162.775 384.394C155.961 378.064 143.503 380 135 380z"/>
<path style="fill:#6491cd; stroke:none;" d="M153 380L153 381L156 381L153 380z"/>
<path style="fill:#a2bde1; stroke:none;" d="M156 380L157 381L156 380z"/>
<path style="fill:#034cae; stroke:none;" d="M174 380L174 425L201 425C200.991 413.849 195.695 415 186 415L186 406L199 406L199 397L186 397C186.306 387.597 193.516 389 201 389L201 380L174 380z"/>
<path style="fill:#a2bde1; stroke:none;" d="M208 380L208 425L209 425C209 412.258 212.91 391.701 208 380z"/>
<path style="fill:#034cae; stroke:none;" d="M209 380L209 425L220 425L220 418.995C220.001 417.669 219.945 416.326 220.019 415.001C220.831 400.54 230.529 421.902 233.61 423.972C236.912 426.192 243.186 425 247 425C244.09 419.774 236.576 412.952 235.878 407.039C235.357 402.623 240.978 398.248 240.969 393C240.944 377.287 219.681 380 209 380z"/>
<path style="fill:#6491cd; stroke:none;" d="M227 380L227 381L230 381L227 380z"/>
<path style="fill:#a2bde1; stroke:none;" d="M230 380L231 381L230 380z"/>
<path style="fill:#6491cd; stroke:none;" d="M271 380L271 425L272 425C272 412.258 275.91 391.701 271 380z"/>
<path style="fill:#034cae; stroke:none;" d="M272 380L272 425L283 425L283 380L272 380z"/>
<path style="fill:#6491cd; stroke:none;" d="M283 380L283 425L284 425C284 412.258 287.91 391.701 283 380M293 380L293 425L294 425C294 412.258 297.91 391.701 293 380z"/>
<path style="fill:#034cae; stroke:none;" d="M294 380L294 425L304 425L303 393L304 393L313 425C316.07 425 320.843 425.848 323.487 423.972C329.037 420.034 332.024 399.635 333 393L334 393L334 425L344 425L344 380C340.034 380 332.889 378.633 329.513 381.028C323.831 385.06 320.585 405.286 320 412L308.487 381.028L294 380z"/>
<path style="fill:#6491cd; stroke:none;" d="M309 380L310 381L309 380M328 380L329 381L328 380M344 380L344 425L345 425C345 412.258 348.91 391.701 344 380z"/>
<path style="fill:#034cae; stroke:none;" d="M354 380L354 425L365 425L364 393L365 393C366.689 401.162 370.309 430.909 383.581 424.397C389.569 421.459 392.543 399.353 394 393L395 393L394 425L405 425L405 380L389 380L380 412L369.297 381.028L354 380z"/>
<path style="fill:#a2bde1; stroke:none;" d="M370 380L371 381L370 380M405 380L405 425L406 425C406 412.258 409.91 391.701 405 380M426 380L427 381L426 380z"/>
<path style="fill:#6491cd; stroke:none;" d="M427 380L428 381L427 380z"/>
<path style="fill:#034cae; stroke:none;" d="M428 380.529C412.951 384.008 409.605 406.551 417.853 417.907C423.225 425.301 434.648 426.497 443 424.467C458.296 420.749 461.107 397.118 452.211 386.185C446.748 379.472 435.949 378.692 428 380.529z"/>
<path style="fill:#6491cd; stroke:none;" d="M443 380L444 381L443 380z"/>
<path style="fill:#a2bde1; stroke:none;" d="M444 380L445 381L444 380z"/>
<path style="fill:#6491cd; stroke:none;" d="M88 381L89 382L88 381z"/>
<path style="fill:#a2bde1; stroke:none;" d="M101 381L102 382L101 381z"/>
<path style="fill:#6491cd; stroke:none;" d="M115 381L116 382L115 381M128 381L129 382L128 381M158 381L159 382L158 381z"/>
<path style="fill:#a2bde1; stroke:none;" d="M159 381L160 382L159 381z"/>
<path style="fill:#6491cd; stroke:none;" d="M233 381L234 382L233 381M370 381L371 382L370 381z"/>
<path style="fill:#a2bde1; stroke:none;" d="M388 381L389 382L388 381z"/>
<path style="fill:#6491cd; stroke:none;" d="M424 381L425 382L424 381M446 381L447 382L446 381z"/>
<path style="fill:#a2bde1; stroke:none;" d="M88 382L89 383L88 382z"/>
<path style="fill:#6491cd; stroke:none;" d="M160 382L161 383L160 382z"/>
<path style="fill:#a2bde1; stroke:none;" d="M161 382L162 383L161 382z"/>
<path style="fill:#6491cd; stroke:none;" d="M235 382L236 383L235 382z"/>
<path style="fill:#a2bde1; stroke:none;" d="M310 382L311 383L310 382M327 382L328 383L327 382z"/>
<path style="fill:#6491cd; stroke:none;" d="M388 382L389 383L388 382M422 382L423 383L422 382z"/>
<path style="fill:#a2bde1; stroke:none;" d="M448 382L449 383L448 382z"/>
<path style="fill:#6491cd; stroke:none;" d="M89 383L90 384L89 383z"/>
<path style="fill:#a2bde1; stroke:none;" d="M102 383L103 384L102 383M114 383L115 384L114 383M127 383L128 384L127 383M162 383L163 384L162 383M237 383L238 384L237 383z"/>
<path style="fill:#6491cd; stroke:none;" d="M310 383L311 384L310 383M327 383L328 384L327 383z"/>
<path style="fill:#a2bde1; stroke:none;" d="M371 383L372 384L371 383z"/>
<path style="fill:#6491cd; stroke:none;" d="M449 383L450 384L449 383M163 384L164 385L163 384z"/>
<path style="fill:#a2bde1; stroke:none;" d="M238 384L239 385L238 384z"/>
<path style="fill:#6491cd; stroke:none;" d="M371 384L372 385L371 384z"/>
<path style="fill:#a2bde1; stroke:none;" d="M419 384L420 385L419 384z"/>
<path style="fill:#6491cd; stroke:none;" d="M90 385L91 386L90 385z"/>
<path style="fill:#a2bde1; stroke:none;" d="M103 385L104 386L103 385M113 385L114 386L113 385M126 385L127 386L126 385M164 385L165 386L164 385M239 385L240 386L239 385M326 385L327 386L326 385M387 385L388 386L387 385M418 385L419 386L418 385z"/>
<path style="fill:#6491cd; stroke:none;" d="M103 386L104 387L103 386z"/>
<path style="fill:#a2bde1; stroke:none;" d="M311 386L312 387L311 386z"/>
<path style="fill:#6491cd; stroke:none;" d="M326.333 386.667L326.667 387.333L326.333 386.667z"/>
<path style="fill:#a2bde1; stroke:none;" d="M372 386L373 387L372 386z"/>
<path style="fill:#6491cd; stroke:none;" d="M387 386L388 387L387 386M452 386L453 387L452 386M91 387L92 388L91 387z"/>
<path style="fill:#a2bde1; stroke:none;" d="M104 387L105 388L104 387M112 387L113 388L112 387M125 387L126 388L125 387z"/>
<path style="fill:#6491cd; stroke:none;" d="M165 387L166 388L165 387M240 387L241 388L240 387M311 387L312 388L311 387M372.333 387.667L372.667 388.333L372.333 387.667M417 387L418 388L417 387z"/>
<path style="fill:#a2bde1; stroke:none;" d="M453 387L454 388L453 387z"/>
<path style="fill:#6491cd; stroke:none;" d="M104 388L105 389L104 388M112 388L113 389L112 388M124 388L125 389L124 388z"/>
<path style="fill:#a2bde1; stroke:none;" d="M386 388L387 389L386 388M416 388L417 389L416 388M92 389L93 390L92 389M111 389L112 390L111 389M124 389L125 390L124 389M166 389L167 390L166 389z"/>
<path style="fill:#6491cd; stroke:none;" d="M187 389L187 390L201 390L187 389z"/>
<path style="fill:#a2bde1; stroke:none;" d="M221 389L221 390L226 390L221 389z"/>
<path style="fill:#6491cd; stroke:none;" d="M226 389L227 390L226 389z"/>
<path style="fill:#a2bde1; stroke:none;" d="M241.333 389.667L241.667 390.333L241.333 389.667M312 389L313 390L312 389M325 389L326 390L325 389z"/>
<path style="fill:#6491cd; stroke:none;" d="M386 389L387 390L386 389M432 389L433 390L432 389z"/>
<path style="fill:#a2bde1; stroke:none;" d="M433 389L433 390L437 390L433 389z"/>
<path style="fill:#6491cd; stroke:none;" d="M437 389L438 390L437 389M454 389L455 390L454 389M105 390L106 391L105 390M111 390L112 391L111 390M123 390L124 391L123 390M146 390L146 400L147 400L146 390z"/>
<path style="fill:#fffffe; stroke:none;" d="M147 390L147 400C155.468 399.046 155.815 390.488 147 390z"/>
<path style="fill:#a2bde1; stroke:none;" d="M152 390L153 391L152 390z"/>
<path style="fill:#6491cd; stroke:none;" d="M166 390L167 391L166 390z"/>
<path style="fill:#a2bde1; stroke:none;" d="M186 390L186 397L187 397L186 390z"/>
<path style="fill:#6491cd; stroke:none;" d="M220 390C220.004 395.472 219.636 399.504 226 400L226 399L221 399L220 390z"/>
<path style="fill:#fffffe; stroke:none;" d="M221 390L221 399C230.334 398.696 230.334 390.304 221 390z"/>
<path style="fill:#a2bde1; stroke:none;" d="M227 390L228 391L227 390z"/>
<path style="fill:#6491cd; stroke:none;" d="M312 390L313 391L312 390M325 390L326 391L325 390z"/>
<path style="fill:#a2bde1; stroke:none;" d="M373 390L374 391L373 390M415 390L416 391L415 390z"/>
<path style="fill:#6491cd; stroke:none;" d="M430 390L428 393L430 390z"/>
<path style="fill:#fffffe; stroke:none;" d="M431.133 391.028C422.098 396.209 427.023 421.48 439.775 413.821C448.748 408.432 443.783 383.773 431.133 391.028z"/>
<path style="fill:#a2bde1; stroke:none;" d="M439 390L440 391L439 390M93 391L94 392L93 391M228 391L229 392L228 391z"/>
<path style="fill:#6491cd; stroke:none;" d="M241 391L241 396L242 396L241 391M373 391L374 392L373 391z"/>
<path style="fill:#a2bde1; stroke:none;" d="M385.333 391.667L385.667 392.333L385.333 391.667z"/>
<path style="fill:#6491cd; stroke:none;" d="M415 391L416 392L415 391M441 391L442 392L441 391z"/>
<path style="fill:#a2bde1; stroke:none;" d="M455 391L456 392L455 391z"/>
<path style="fill:#6491cd; stroke:none;" d="M106 392L107 393L106 392M110 392L111 393L110 392M122 392L123 393L122 392M154 392L155 393L154 392M229 392L229 396L230 396L229 392z"/>
<path style="fill:#a2bde1; stroke:none;" d="M313 392L314 393L313 392M324 392L325 393L324 392M94 393L95 394L94 393M154 393L154 396L155 396L154 393z"/>
<path style="fill:#6491cd; stroke:none;" d="M303 393L303 397L304 397L303 393M313 393L314 394L313 393M324 393L325 394L324 393M333 393L334 394L333 393M364 393L365 394L364 393z"/>
<path style="fill:#a2bde1; stroke:none;" d="M374 393L375 394L374 393z"/>
<path style="fill:#6491cd; stroke:none;" d="M385 393L386 394L385 393M394 393L395 394L394 393z"/>
<path style="fill:#a2bde1; stroke:none;" d="M414 393L415 394L414 393M442 393L443 394L442 393z"/>
<path style="fill:#6491cd; stroke:none;" d="M95 394L96 395L95 394z"/>
<path style="fill:#a2bde1; stroke:none;" d="M107 394L108 395L107 394z"/>
<path style="fill:#6491cd; stroke:none;" d="M109 394L110 395L109 394M121 394L122 395L121 394z"/>
<path style="fill:#a2bde1; stroke:none;" d="M333 394L333 400L334 400L333 394M364 394L366 397L364 394z"/>
<path style="fill:#6491cd; stroke:none;" d="M374 394L375 395L374 394z"/>
<path style="fill:#a2bde1; stroke:none;" d="M394 394L395 395L394 394z"/>
<path style="fill:#6491cd; stroke:none;" d="M414 394L415 395L414 394M427 394L428 395L427 394z"/>
<path style="fill:#a2bde1; stroke:none;" d="M456 394L457 395L456 394M95 395L96 396L95 395M304 395L305 396L304 395z"/>
<path style="fill:#6491cd; stroke:none;" d="M365 395L366 396L365 395z"/>
<path style="fill:#a2bde1; stroke:none;" d="M384 395L385 396L384 395z"/>
<path style="fill:#6491cd; stroke:none;" d="M393 395L394 402L395 402L393 395z"/>
<path style="fill:#a2bde1; stroke:none;" d="M427 395L428 396L427 395z"/>
<path style="fill:#6491cd; stroke:none;" d="M443 395L444 396L443 395M456.333 395.667L456.667 396.333L456.333 395.667M56 396L57 397L56 396M96 396L97 397L96 396M108 396L109 397L108 396z"/>
<path style="fill:#a2bde1; stroke:none;" d="M120 396L121 397L120 396z"/>
<path style="fill:#6491cd; stroke:none;" d="M154 396L155 397L154 396z"/>
<path style="fill:#a2bde1; stroke:none;" d="M241 396L242 397L241 396M314 396L315 397L314 396M323 396L324 397L323 396z"/>
<path style="fill:#6491cd; stroke:none;" d="M332 396L333 397L332 396M364 396L364 402L365 402L364 396M384 396L385 397L384 396z"/>
<path style="fill:#a2bde1; stroke:none;" d="M393 396L394 397L393 396M443 396L444 397L443 396M96 397L97 398L96 397z"/>
<path style="fill:#6491cd; stroke:none;" d="M166.333 397.667L166.667 398.333L166.333 397.667M199 397L199 406L186 406L186 407C193.343 407 203.416 407.528 199 397M228 397L229 398L228 397M314 397L315 398L314 397M323 397L324 398L323 397z"/>
<path style="fill:#a2bde1; stroke:none;" d="M375 397L376 398L375 397M413 397L413 400L414 400L413 397z"/>
<path style="fill:#6491cd; stroke:none;" d="M426.333 397.667L426.667 398.333L426.333 397.667M97 398L98 399L97 398z"/>
<path style="fill:#a2bde1; stroke:none;" d="M119 398L120 399L119 398z"/>
<path style="fill:#6491cd; stroke:none;" d="M153 398L154 399L153 398M227 398L228 399L227 398M240 398L241 399L240 398M305 398L306 399L305 398M375 398L376 399L375 398z"/>
<path style="fill:#a2bde1; stroke:none;" d="M383 398L384 399L383 398z"/>
<path style="fill:#6491cd; stroke:none;" d="M392 398L393 399L392 398z"/>
<path style="fill:#a2bde1; stroke:none;" d="M151 399L152 400L151 399M166 399L167 400L166 399M240 399L241 400L240 399M305 399L306 400L305 399M315 399L316 400L315 399M322 399L323 400L322 399z"/>
<path style="fill:#6491cd; stroke:none;" d="M331 399L332 400L331 399M366 399L367 400L366 399M383.333 399.667L383.667 400.333L383.333 399.667z"/>
<path style="fill:#a2bde1; stroke:none;" d="M392 399L393 400L392 399M426 399L426 406L427 406L426 399z"/>
<path style="fill:#6491cd; stroke:none;" d="M444 399L444 406L445 406L444 399M98 400L99 401L98 400z"/>
<path style="fill:#a2bde1; stroke:none;" d="M118 400L119 401L118 400z"/>
<path style="fill:#6491cd; stroke:none;" d="M239 400L240 401L239 400M315 400L316 401L315 400M322 400L323 401L322 400z"/>
<path style="fill:#a2bde1; stroke:none;" d="M331 400L332 401L331 400z"/>
<path style="fill:#6491cd; stroke:none;" d="M333 400L333 425L334 425L333 400z"/>
<path style="fill:#a2bde1; stroke:none;" d="M366 400L367 401L366 400M376 400L377 401L376 400z"/>
<path style="fill:#6491cd; stroke:none;" d="M413 400L413 405L414 405L413 400M117 401L118 402L117 401M165 401L166 402L165 401M306 401L307 402L306 401M376 401L377 402L376 401M99 402L100 403L99 402z"/>
<path style="fill:#a2bde1; stroke:none;" d="M117 402L118 403L117 402M165 402L166 403L165 402M306 402L307 403L306 402z"/>
<path style="fill:#6491cd; stroke:none;" d="M367 402L368 403L367 402z"/>
<path style="fill:#a2bde1; stroke:none;" d="M382 402L383 403L382 402z"/>
<path style="fill:#6491cd; stroke:none;" d="M391 402L392 403L391 402z"/>
<path style="fill:#a2bde1; stroke:none;" d="M457 402L458 403L457 402z"/>
<path style="fill:#6491cd; stroke:none;" d="M116 403L117 404L116 403M164 403L165 404L164 403M236 403L237 404L236 403M248 403L248 404L265 404L248 403z"/>
<path style="fill:#a2bde1; stroke:none;" d="M316 403L317 404L316 403M321 403L322 404L321 403z"/>
<path style="fill:#6491cd; stroke:none;" d="M330 403L331 404L330 403z"/>
<path style="fill:#a2bde1; stroke:none;" d="M367 403L368 404L367 403M377 403L378 404L377 403z"/>
<path style="fill:#6491cd; stroke:none;" d="M382 403L383 404L382 403z"/>
<path style="fill:#a2bde1; stroke:none;" d="M391 403L392 404L391 403M100 404L101 405L100 404z"/>
<path style="fill:#6491cd; stroke:none;" d="M235 404L236 405L235 404z"/>
<path style="fill:#034cae; stroke:none;" d="M248 404L248 413L265 413L265 404L248 404z"/>
<path style="fill:#a2bde1; stroke:none;" d="M265 404L265 413L266 413L265 404z"/>
<path style="fill:#6491cd; stroke:none;" d="M316 404L317 405L316 404M321 404L322 405L321 404z"/>
<path style="fill:#a2bde1; stroke:none;" d="M330 404L331 405L330 404z"/>
<path style="fill:#6491cd; stroke:none;" d="M377.333 404.667L377.667 405.333L377.333 404.667M115 405L116 406L115 405z"/>
<path style="fill:#a2bde1; stroke:none;" d="M234 405L235 406L234 405z"/>
<path style="fill:#6491cd; stroke:none;" d="M307 405L308 406L307 405z"/>
<path style="fill:#a2bde1; stroke:none;" d="M381 405L382 406L381 405z"/>
<path style="fill:#6491cd; stroke:none;" d="M390 405L391 406L390 405z"/>
<path style="fill:#a2bde1; stroke:none;" d="M413 405L413 408L414 408L413 405z"/>
<path style="fill:#6491cd; stroke:none;" d="M56 406L56 407L70 407L56 406z"/>
<path style="fill:#a2bde1; stroke:none;" d="M101 406L102 407L101 406M199 406L200 407L199 406z"/>
<path style="fill:#6491cd; stroke:none;" d="M234 406L235 407L234 406z"/>
<path style="fill:#a2bde1; stroke:none;" d="M307 406L308 407L307 406M317 406L318 407L317 406M320 406L321 407L320 406z"/>
<path style="fill:#6491cd; stroke:none;" d="M329 406L330 407L329 406M368 406L369 407L368 406M381 406L382 407L381 406z"/>
<path style="fill:#a2bde1; stroke:none;" d="M390.333 406.667L390.667 407.333L390.333 406.667z"/>
<path style="fill:#6491cd; stroke:none;" d="M426.333 406.667L426.667 407.333L426.333 406.667z"/>
<path style="fill:#a2bde1; stroke:none;" d="M56 407L56 425L57 425L56 407z"/>
<path style="fill:#6491cd; stroke:none;" d="M70 407L70 425L71 425L70 407M114 407L114 425L115 425L114 407M160 407L161 408L160 407z"/>
<path style="fill:#a2bde1; stroke:none;" d="M186 407L186 415L187 415L186 407M235 407L236 408L235 407z"/>
<path style="fill:#6491cd; stroke:none;" d="M317 407L318 408L317 407M320 407L321 408L320 407z"/>
<path style="fill:#a2bde1; stroke:none;" d="M329 407L330 408L329 407M368 407L369 408L368 407M378 407L379 408L378 407z"/>
<path style="fill:#6491cd; stroke:none;" d="M102 408L102 425L103 425L102 408M158 408L159 409L158 408M221 408L221 409L224 409L221 408M308 408L309 409L308 408M378 408L379 409L378 408z"/>
<path style="fill:#a2bde1; stroke:none;" d="M443 408L444 409L443 408z"/>
<path style="fill:#6491cd; stroke:none;" d="M456.333 408.667L456.667 409.333L456.333 408.667M154.667 409.333L155.333 409.667L154.667 409.333z"/>
<path style="fill:#a2bde1; stroke:none;" d="M156 409L157 410L156 409z"/>
<path style="fill:#6491cd; stroke:none;" d="M220 409L220 425L221 425L220 409M224 409L225 410L224 409M236 409L237 410L236 409z"/>
<path style="fill:#a2bde1; stroke:none;" d="M308 409L309 410L308 409M318 409L320 411L318 409z"/>
<path style="fill:#6491cd; stroke:none;" d="M369 409L370 410L369 409z"/>
<path style="fill:#a2bde1; stroke:none;" d="M380 409L379 411L380 409z"/>
<path style="fill:#6491cd; stroke:none;" d="M389 409L390 410L389 409z"/>
<path style="fill:#a2bde1; stroke:none;" d="M427 409L428 410L427 409z"/>
<path style="fill:#6491cd; stroke:none;" d="M443 409L444 410L443 409M146 410L146 425L147 425L146 410z"/>
<path style="fill:#a2bde1; stroke:none;" d="M237 410L238 411L237 410z"/>
<path style="fill:#6491cd; stroke:none;" d="M318 410L319 411L318 410M328 410L329 411L328 410z"/>
<path style="fill:#a2bde1; stroke:none;" d="M369 410L370 411L369 410z"/>
<path style="fill:#6491cd; stroke:none;" d="M380 410L381 411L380 410z"/>
<path style="fill:#a2bde1; stroke:none;" d="M389 410L390 411L389 410z"/>
<path style="fill:#6491cd; stroke:none;" d="M414 410L415 411L414 410M427 410L428 411L427 410z"/>
<path style="fill:#a2bde1; stroke:none;" d="M456 410L457 411L456 410z"/>
<path style="fill:#6491cd; stroke:none;" d="M225 411L226 412L225 411M319 411L320 412L319 411z"/>
<path style="fill:#a2bde1; stroke:none;" d="M328 411L329 412L328 411z"/>
<path style="fill:#6491cd; stroke:none;" d="M379 411L380 412L379 411z"/>
<path style="fill:#a2bde1; stroke:none;" d="M414 411L415 412L414 411M442 411L443 412L442 411z"/>
<path style="fill:#6491cd; stroke:none;" d="M238 412L239 413L238 412M309 412L310 413L309 412M388.333 412.667L388.667 413.333L388.333 412.667M428 412L429 413L428 412M455 412L456 413L455 412z"/>
<path style="fill:#a2bde1; stroke:none;" d="M226 413L227 414L226 413M239 413L240 414L239 413M309 413L310 414L309 413z"/>
<path style="fill:#6491cd; stroke:none;" d="M327 413L328 414L327 413M370 413L371 414L370 413M415 413L416 414L415 413M429 413L430 414L429 413z"/>
<path style="fill:#a2bde1; stroke:none;" d="M455 413L456 414L455 413z"/>
<path style="fill:#6491cd; stroke:none;" d="M227 414L228 415L227 414z"/>
<path style="fill:#a2bde1; stroke:none;" d="M327.333 414.667L327.667 415.333L327.333 414.667M370 414L371 415L370 414M388 414L389 415L388 414M415 414L416 415L415 414M431 414L432 415L431 414M439 414L440 415L439 414z"/>
<path style="fill:#6491cd; stroke:none;" d="M200 415L201 416L200 415M310 415L311 416L310 415M433 415L433 416L438 416L433 415M454 415L455 416L454 415M228 416L229 417L228 416M241 416L242 417L241 416z"/>
<path style="fill:#a2bde1; stroke:none;" d="M310 416L311 417L310 416z"/>
<path style="fill:#6491cd; stroke:none;" d="M371 416L372 417L371 416M387 416L388 417L387 416z"/>
<path style="fill:#a2bde1; stroke:none;" d="M416 416L417 417L416 416z"/>
<path style="fill:#6491cd; stroke:none;" d="M326 417L327 418L326 417z"/>
<path style="fill:#a2bde1; stroke:none;" d="M371 417L372 418L371 417M387 417L388 418L387 417z"/>
<path style="fill:#6491cd; stroke:none;" d="M417 417L418 418L417 417z"/>
<path style="fill:#a2bde1; stroke:none;" d="M453 417L454 418L453 417M229 418L230 419L229 418M326 418L327 419L326 418z"/>
<path style="fill:#6491cd; stroke:none;" d="M452 418L453 419L452 418M243 419L244 420L243 419M311 419L312 420L311 419M451 419L452 420L451 419z"/>
<path style="fill:#a2bde1; stroke:none;" d="M230 420L231 421L230 420M244 420L245 421L244 420M311 420L312 421L311 420z"/>
<path style="fill:#6491cd; stroke:none;" d="M372 420L373 421L372 420M386 420L387 421L386 420M450 420L451 421L450 420M231 421L232 422L231 421M325 421L326 422L325 421z"/>
<path style="fill:#a2bde1; stroke:none;" d="M372 421L373 422L372 421M386 421L387 422L386 421z"/>
<path style="fill:#6491cd; stroke:none;" d="M421 421L422 422L421 421M449 421L450 422L449 421M245 422L246 423L245 422M312 422L313 423L312 422z"/>
<path style="fill:#a2bde1; stroke:none;" d="M325 422L326 423L325 422M422 422L423 423L422 422M448 422L449 423L448 422z"/>
<path style="fill:#6491cd; stroke:none;" d="M232 423L233 424L232 423z"/>
<path style="fill:#a2bde1; stroke:none;" d="M246 423L247 424L246 423M312 423L313 424L312 423z"/>
<path style="fill:#6491cd; stroke:none;" d="M373 423L374 424L373 423M385 423L386 424L385 423M424 423L425 424L424 423z"/>
<path style="fill:#a2bde1; stroke:none;" d="M446 423L447 424L446 423z"/>
<path style="fill:#6491cd; stroke:none;" d="M324 424L325 425L324 424z"/>
<path style="fill:#a2bde1; stroke:none;" d="M373 424L374 425L373 424M385 424L386 425L385 424M426 424L427 425L426 424z"/>
<path style="fill:#6491cd; stroke:none;" d="M427 424L428 425L427 424M443 424L444 425L443 424z"/>
<path style="fill:#a2bde1; stroke:none;" d="M444 424L445 425L444 424M430.667 425.333L431.333 425.667L430.667 425.333z"/>
<path style="fill:#6491cd; stroke:none;" d="M432 425L432 426L438 426L432 425z"/>
<path style="fill:#a2bde1; stroke:none;" d="M438 425L438 426L441 426L438 425z"/>
</svg>
